<svg preserveAspectRatio="none" width="100%" height="100%" overflow="visible" style="display: block;" viewBox="0 0 60 80" fill="none" xmlns="http://www.w3.org/2000/svg">
<g id="Hourglass">
<path id="Vector" d="M56.6667 16.1V9.06667C57.6743 8.48496 58.5121 7.6497 59.0968 6.6439C59.6816 5.63809 59.993 4.49676 60 3.33333V1.66667C60 1.22464 59.8244 0.800716 59.5118 0.488155C59.1993 0.175595 58.7754 0 58.3333 0L1.66667 0C1.22464 0 0.800716 0.175595 0.488156 0.488155C0.175595 0.800716 0 1.22464 0 1.66667V3.33333C0.00702247 4.49676 0.318392 5.63809 0.903164 6.6439C1.48794 7.6497 2.32575 8.48496 3.33333 9.06667V16.1C3.34988 19.3529 4.04641 22.5664 5.37819 25.5342C6.70998 28.502 8.64759 31.1586 11.0667 33.3333L18.3667 40L11.0667 46.6667C8.64759 48.8414 6.70998 51.498 5.37819 54.4658C4.04641 57.4336 3.34988 60.6471 3.33333 63.9V70.9333C2.32575 71.515 1.48794 72.3503 0.903164 73.3561C0.318392 74.3619 0.00702247 75.5032 0 76.6667V78.3333C0 78.7754 0.175595 79.1993 0.488156 79.5118C0.800716 79.8244 1.22464 80 1.66667 80H58.3333C58.7754 80 59.1993 79.8244 59.5118 79.5118C59.8244 79.1993 60 78.7754 60 78.3333V76.6667C59.993 75.5032 59.6816 74.3619 59.0968 73.3561C58.5121 72.3503 57.6743 71.515 56.6667 70.9333V63.9C56.6501 60.6471 55.9536 57.4336 54.6218 54.4658C53.29 51.498 51.3524 48.8414 48.9333 46.6667L41.6333 40L48.9333 33.3333C51.3524 31.1586 53.29 28.502 54.6218 25.5342C55.9536 22.5664 56.6501 19.3529 56.6667 16.1ZM34.4333 37.5333C34.0842 37.846 33.8048 38.2287 33.6136 38.6567C33.4224 39.0846 33.3235 39.548 33.3235 40.0167C33.3235 40.4854 33.4224 40.9488 33.6136 41.3767C33.8048 41.8046 34.0842 42.1874 34.4333 42.5L44.4333 51.5333C46.1762 53.0893 47.5724 54.9944 48.5314 57.1249C49.4904 59.2553 49.9907 61.5636 50 63.9V70H45.8333L31.3333 50.6667C31.1707 50.4708 30.9669 50.3133 30.7364 50.2051C30.506 50.097 30.2546 50.0409 30 50.0409C29.7454 50.0409 29.494 50.097 29.2636 50.2051C29.0331 50.3133 28.8293 50.4708 28.6667 50.6667L14.1667 70H10V63.9C10.0004 61.5605 10.4933 59.2474 11.4466 57.1109C12.4 54.9745 13.7924 53.0628 15.5333 51.5L25.5333 42.4667C25.8825 42.154 26.1618 41.7713 26.3531 41.3433C26.5443 40.9154 26.6431 40.452 26.6431 39.9833C26.6431 39.5146 26.5443 39.0512 26.3531 38.6233C26.1618 38.1954 25.8825 37.8126 25.5333 37.5L15.5333 28.4667C13.7966 26.9077 12.4066 25.0013 11.4534 22.8709C10.5002 20.7406 10.005 18.4338 10 16.1V10H50V16.1C49.9996 18.4395 49.5067 20.7526 48.5534 22.8891C47.6 25.0255 46.2076 26.9372 44.4667 28.5L34.4333 37.5333Z" fill="var(--fill-0, #1B4A41)"/>
<path id="Vector_2" d="M41.5003 23.334H18.5003C18.175 23.3318 17.8562 23.4248 17.5832 23.6016C17.3101 23.7783 17.0948 24.0311 16.9637 24.3288C16.8326 24.6265 16.7914 24.956 16.8453 25.2768C16.8992 25.5975 17.0458 25.8955 17.267 26.134L28.867 36.6674C29.1732 36.9438 29.5711 37.0968 29.9836 37.0968C30.3962 37.0968 30.794 36.9438 31.1003 36.6674L42.7003 25.9674C42.8719 25.7289 42.9775 25.4494 43.0063 25.157C43.035 24.8647 42.986 24.5699 42.8642 24.3026C42.7424 24.0352 42.5521 23.8049 42.3126 23.6348C42.073 23.4647 41.7928 23.3609 41.5003 23.334Z" fill="var(--fill-0, #1B4A41)"/>
</g>
</svg>
