<svg preserveAspectRatio="none" width="100%" height="100%" overflow="visible" style="display: block;" viewBox="0 0 40 40" fill="none" xmlns="http://www.w3.org/2000/svg">
<g id="fi_16994871">
<path id="Vector" d="M12.9608 26.7307C17.6429 18.9645 30.2319 9.98316 37.1852 5.0567C37.573 4.78196 38.0878 4.77511 38.4841 5.03745C39.124 5.46111 39.1785 6.38027 38.5922 6.87551C30.2502 13.922 20.3238 22.3522 17.326 31.6386C17.2173 31.9753 16.9669 32.2432 16.6372 32.3716C15.1162 32.9636 12.7958 34.1566 11.4231 34.9866C10.8462 35.3354 10.1002 35.1216 9.79443 34.5207C7.66774 30.3421 4.24873 25.1863 1.41233 22.8508C0.889377 22.4202 0.859101 21.6192 1.34875 21.151C7.01644 15.7323 11.1966 23.1529 12.9602 26.7304L12.9608 26.7307Z" fill="var(--fill-0, #00A63E)"/>
</g>
</svg>
