<svg width="204" height="31" viewBox="0 0 204 31" fill="none" xmlns="http://www.w3.org/2000/svg">
<g clip-path="url(#clip0_49_1129)">
<path d="M6 6.3567C6 5.7676 6.47756 5.29004 7.06667 5.29004H24.9333C25.5224 5.29004 26 5.7676 26 6.35671V24.2234C26 24.8125 25.5224 25.29 24.9333 25.29H18.7C11.686 25.29 6 19.6041 6 12.59V6.3567Z" fill="#0284C7"/>
<path d="M7.66669 10.9567C7.66669 10.5149 8.02486 10.1567 8.46669 10.1567H23.5C23.9419 10.1567 24.3 10.5149 24.3 10.9567V22.4901C24.3 22.9319 23.9418 23.2901 23.5 23.2901H19C12.7408 23.2901 7.66669 18.216 7.66669 11.9567V10.9567Z" fill="white"/>
<path d="M9.93329 12.6213C9.93329 12.3647 10.1413 12.1567 10.3978 12.1567H24.3V14.5567H11.8688C10.7998 14.5567 9.93329 13.6902 9.93329 12.6213V12.6213Z" fill="#0284C7"/>
<path d="M18.8333 23.3901L18.8333 14.0235L21.6333 14.0235L21.6333 23.3901L18.8333 23.3901Z" fill="#0284C7"/>
<circle cx="8.50002" cy="7.79012" r="0.833333" fill="white"/>
<circle cx="10.9667" cy="7.79012" r="0.833333" fill="white"/>
<circle cx="13.4334" cy="7.79012" r="0.833333" fill="white"/>
<path d="M15.0667 7.75679C15.0667 7.31496 15.4248 6.95679 15.8667 6.95679H23.5C23.9418 6.95679 24.3 7.31496 24.3 7.75679V7.82345C24.3 8.26528 23.9418 8.62345 23.5 8.62345H15.8667C15.4248 8.62345 15.0667 8.26528 15.0667 7.82345V7.75679Z" fill="white"/>
</g>
<path d="M46.2205 7.53751V11.2169H43.461V22.255L38.7595 22.2346V11.2169H36V7.53751H46.2205Z" fill="#171544"/>
<path d="M59.1477 22.255H54.4462L52.8927 18.0442H51.9933V22.255H47.2919V7.53751H56.245C57.6759 7.53751 58.7388 8.62088 58.7388 10.0517V15.5299C58.7388 16.5111 58.2483 17.3083 57.4919 17.7376L59.1477 22.255ZM51.9933 11.2169V14.3648H52.811C53.322 14.3648 53.833 14.0173 53.833 13.4245V12.1572C53.833 11.5644 53.322 11.2169 52.811 11.2169H51.9933Z" fill="#171544"/>
<path d="M68.5433 22.255L68.1754 20.4767H64.7822L64.4142 22.255H59.7128L63.7193 7.53751H69.2383L73.2448 22.255H68.5433ZM65.5181 16.7973H67.4395L66.4788 12.0754L65.5181 16.7973Z" fill="#171544"/>
<path d="M83.3781 7.53751C84.8089 7.53751 85.8719 8.62088 85.8719 10.0517V19.7408C85.8719 21.1716 84.8089 22.255 83.3781 22.255H74.2205V7.53751H83.3781ZM80.966 17.6354V12.1572C80.966 11.5644 80.455 11.2169 79.944 11.2169H78.9219V18.5756H79.944C80.455 18.5756 80.966 18.2281 80.966 17.6354Z" fill="#171544"/>
<path d="M97.94 11.2169H92.2165V13.0566H97.3268V16.736H92.2165V18.5756H97.94V22.255H87.5151V7.53751H97.94V11.2169Z" fill="#171544"/>
<path d="M108.934 7.4353C110.365 7.4353 111.428 8.51867 111.428 9.94954V12.4638H106.522V12.1572C106.522 11.5644 106.011 11.2169 105.5 11.2169C104.989 11.2169 104.478 11.5644 104.478 12.1572C104.478 12.75 104.989 13.0157 105.5 13.0975L108.934 13.7107C110.345 13.956 111.428 14.7941 111.428 16.2249V19.843C111.428 21.2739 110.365 22.3572 108.934 22.3572H102.066C100.635 22.3572 99.5721 21.2739 99.5721 19.843V17.4105H104.478V17.7171C104.478 18.3099 104.989 18.6574 105.5 18.6574C106.011 18.6574 106.522 18.3099 106.522 17.7171C106.522 17.1243 106.011 16.8586 105.5 16.7768L102.066 16.1636C100.655 15.9183 99.5721 15.0802 99.5721 13.6494V9.94954C99.5721 8.51867 100.635 7.4353 102.066 7.4353H108.934Z" fill="#171544"/>
<path d="M113.066 22.255V7.53751H117.768V22.255H113.066Z" fill="#171544"/>
<path d="M129.042 7.53751V11.2169H126.283V22.255L121.581 22.2346V11.2169H118.822V7.53751H129.042Z" fill="#171544"/>
<path d="M140.539 11.2169H134.815V13.0566H139.925V16.736H134.815V18.5756H140.539V22.255H130.114V7.53751H140.539V11.2169Z" fill="#171544"/>
<path d="M151.533 7.4353C152.964 7.4353 154.027 8.51867 154.027 9.94954V12.9339H149.121V12.055C149.121 11.4622 148.61 11.1147 148.099 11.1147C147.588 11.1147 147.077 11.4622 147.077 12.055V17.7376C147.077 18.3303 147.588 18.6778 148.099 18.6778C148.61 18.6778 149.121 18.3303 149.121 17.7376V17.1652H148.099V13.8947H154.027V19.843C154.027 21.2739 152.964 22.3572 151.533 22.3572H144.665C143.234 22.3572 142.171 21.2739 142.171 19.843V9.94954C142.171 8.51867 143.234 7.4353 144.665 7.4353H151.533Z" fill="#171544"/>
<path d="M166.09 11.2169H160.366V13.0566H165.477V16.736H160.366V18.5756H166.09V22.255H155.665V7.53751H166.09V11.2169Z" fill="#171544"/>
<path d="M174.897 7.53751H179.598V22.255H173.997L172.423 15.7139V22.255H167.722V7.53751H173.323L174.897 13.7311V7.53751Z" fill="#171544"/>
<path d="M181.236 22.255V7.53751H185.938V22.255H181.236Z" fill="#171544"/>
<path d="M197.989 11.2169H192.266V13.0566H197.376V16.736H192.266V18.5756H197.989V22.255H187.564V7.53751H197.989V11.2169Z" fill="#171544"/>
<defs>
<clipPath id="clip0_49_1129">
<rect width="20" height="20" fill="white" transform="translate(6 5.29004)"/>
</clipPath>
</defs>
</svg>
