<svg width="23" height="20" viewBox="0 0 23 20" fill="none" xmlns="http://www.w3.org/2000/svg">
<path d="M22.0293 14.2625L14.0043 1.35C13.3668 0.4875 12.3918 0 11.3418 0C10.2543 0 9.27932 0.4875 8.67932 1.35L0.654323 14.2625C-0.0956766 15.275 -0.208177 16.5875 0.354323 17.7125C0.916823 18.8375 2.04182 19.55 3.31682 19.55H19.3668C20.6418 19.55 21.7668 18.8375 22.3293 17.7125C22.8918 16.625 22.7793 15.275 22.0293 14.2625ZM20.8293 16.9625C20.5293 17.525 20.0043 17.8625 19.3668 17.8625H3.31682C2.67932 17.8625 2.15432 17.525 1.85432 16.9625C1.59182 16.4 1.62932 15.7625 2.00432 15.275L10.0293 2.3625C10.3293 1.95 10.8168 1.6875 11.3418 1.6875C11.8668 1.6875 12.3543 1.9125 12.6543 2.3625L20.6793 15.275C21.0543 15.7625 21.0918 16.4 20.8293 16.9625Z" fill="#1B4A41"/>
<path d="M11.342 6.9751C10.892 6.9751 10.4795 7.3501 10.4795 7.8376V11.9251C10.4795 12.3751 10.8545 12.7876 11.342 12.7876C11.8295 12.7876 12.2045 12.4126 12.2045 11.9251V7.8001C12.2045 7.3501 11.792 6.9751 11.342 6.9751Z" fill="#1B4A41"/>
<path d="M11.342 13.7749C10.892 13.7749 10.4795 14.1499 10.4795 14.6374V14.8249C10.4795 15.2749 10.8545 15.6874 11.342 15.6874C11.8295 15.6874 12.2045 15.3124 12.2045 14.8249V14.5999C12.2045 14.1499 11.792 13.7749 11.342 13.7749Z" fill="#1B4A41"/>
</svg>
