<svg width="23" height="16" viewBox="0 0 23 16" fill="none" xmlns="http://www.w3.org/2000/svg">
<path d="M7.52817 9.3C10.1157 9.3 12.1782 7.2 12.1782 4.65C12.1782 2.1 10.0782 0 7.52817 0C4.97817 0 2.87817 2.0625 2.87817 4.65C2.87817 7.2375 4.97817 9.3 7.52817 9.3ZM7.52817 1.65C9.17817 1.65 10.4907 3 10.4907 4.6125C10.4907 6.225 9.14067 7.575 7.52817 7.575C5.87817 7.575 4.56567 6.225 4.56567 4.6125C4.56567 3 5.87817 1.65 7.52817 1.65Z" fill="#1B4A41"/>
<path d="M7.52812 10.4625C4.82812 10.4625 2.24063 11.55 0.253125 13.575C-0.084375 13.9125 -0.084375 14.4375 0.253125 14.775C0.403125 14.925 0.628125 15.0375 0.853125 15.0375C1.07812 15.0375 1.30312 14.9625 1.45312 14.775C3.10312 13.0875 5.27812 12.15 7.52812 12.15C9.74062 12.15 11.9156 13.0875 13.6031 14.775C13.9406 15.1125 14.4656 15.1125 14.8031 14.775C15.1406 14.4375 15.1406 13.9125 14.8031 13.575C12.8156 11.5875 10.2281 10.4625 7.52812 10.4625Z" fill="#1B4A41"/>
<path d="M17.0906 9.29995C18.5906 9.29995 19.8281 8.06245 19.8281 6.56245C19.8281 5.06245 18.5906 3.82495 17.0906 3.82495C15.5906 3.82495 14.3531 5.06245 14.3531 6.56245C14.3156 8.06245 15.5531 9.29995 17.0906 9.29995ZM17.0906 5.47495C17.6906 5.47495 18.1406 5.96245 18.1406 6.52495C18.1406 7.12495 17.6531 7.57495 17.0906 7.57495C16.5281 7.57495 16.0406 7.08745 16.0406 6.52495C16.0031 5.96245 16.4906 5.47495 17.0906 5.47495Z" fill="#1B4A41"/>
<path d="M22.4156 12.6C20.4281 10.7625 17.6906 10.0125 14.9531 10.725C14.5031 10.8375 14.2406 11.2875 14.3531 11.7375C14.4656 12.1875 14.9531 12.45 15.3656 12.3375C17.5406 11.775 19.7156 12.3375 21.2531 13.8C21.4031 13.95 21.6281 14.025 21.8156 14.025C22.0406 14.025 22.2656 13.95 22.4156 13.7625C22.7906 13.4625 22.7531 12.9375 22.4156 12.6Z" fill="#1B4A41"/>
</svg>