<svg width="18" height="23" viewBox="0 0 18 23" fill="none" xmlns="http://www.w3.org/2000/svg">
<path d="M8.73755 9.825C5.92505 9.825 3.67505 7.6125 3.67505 4.9125C3.67505 2.2125 5.92505 0 8.73755 0C11.55 0 13.8 2.2125 13.8 4.9125C13.8 7.6125 11.55 9.825 8.73755 9.825ZM8.73755 1.6875C6.86255 1.6875 5.36255 3.15 5.36255 4.9125C5.36255 6.675 6.86255 8.1375 8.73755 8.1375C10.6125 8.1375 12.1125 6.675 12.1125 4.9125C12.1125 3.15 10.6125 1.6875 8.73755 1.6875Z" fill="#1B4A41"/>
<path d="M16.125 22.6875H1.35C0.6 22.6875 0 22.0875 0 21.3375V17.9625C0 14.2875 3 11.2875 6.675 11.2875H10.8375C14.5125 11.2875 17.5125 14.2875 17.5125 17.9625V21.3375C17.475 22.05 16.875 22.6875 16.125 22.6875ZM1.6875 21H15.825V17.9625C15.825 15.225 13.575 12.975 10.8375 12.975H6.6375C3.9 12.975 1.65 15.225 1.65 17.9625V21H1.6875Z" fill="#1B4A41"/>
</svg>
