<svg width="24" height="19" viewBox="0 0 24 19" fill="none" xmlns="http://www.w3.org/2000/svg">
<path d="M17.3251 7.12499L17.5126 6.71249L17.7001 7.12499C17.8501 7.46249 18.1876 7.64999 18.5626 7.64999C18.9376 7.64999 19.2376 7.46249 19.4251 7.12499L20.3626 5.21249C20.5876 4.79999 20.4001 4.27499 19.9876 4.08749C19.5751 3.89999 19.0501 4.04999 18.8626 4.46249L18.5626 5.02499L18.3751 4.61249C18.2251 4.27499 17.8876 4.08749 17.5126 4.08749C17.1376 4.08749 16.8376 4.27499 16.6501 4.61249L16.4626 5.02499L16.2001 4.42499C15.9751 4.01249 15.4876 3.82499 15.0751 4.04999C14.8501 4.16249 14.7001 4.38749 14.6251 4.61249C14.5876 4.38749 14.4001 4.16249 14.1751 4.04999C13.7626 3.82499 13.2376 4.01249 13.0501 4.42499L12.7501 4.98749L12.5626 4.57499C12.4126 4.23749 12.0751 4.04999 11.7001 4.04999C11.3251 4.04999 11.0251 4.23749 10.8376 4.57499L10.6501 4.98749L10.3501 4.42499C10.1251 4.01249 9.63756 3.82499 9.22506 4.04999C9.00006 4.16249 8.85006 4.38749 8.77506 4.61249C8.73756 4.38749 8.55006 4.16249 8.32506 4.04999C7.91256 3.82499 7.38756 4.01249 7.20006 4.42499L6.90006 4.98749L6.71256 4.57499C6.56256 4.23749 6.22506 4.04999 5.85006 4.04999C5.47506 4.04999 5.17506 4.23749 4.98756 4.57499L4.80006 4.98749L4.50006 4.42499C4.27506 4.01249 3.78756 3.82499 3.37506 4.04999C2.96256 4.27499 2.77506 4.76249 3.00006 5.17499L3.93756 7.08749C4.08756 7.42499 4.42506 7.61249 4.80006 7.61249C5.17506 7.61249 5.47506 7.42499 5.66256 7.08749L5.85006 6.67499L6.03756 7.08749C6.18756 7.42499 6.52506 7.61249 6.90006 7.61249C7.27506 7.61249 7.57506 7.42499 7.76256 7.08749L8.70006 5.17499C8.73756 5.09999 8.73756 5.06249 8.77506 4.98749C8.77506 5.06249 8.81256 5.09999 8.85006 5.17499L9.78756 7.08749C9.93756 7.42499 10.2751 7.61249 10.6501 7.61249C11.0251 7.61249 11.3251 7.42499 11.5126 7.08749L11.7001 6.67499L11.8876 7.08749C12.0376 7.42499 12.3751 7.61249 12.7501 7.61249C13.1251 7.61249 13.4251 7.42499 13.6126 7.08749L14.5501 5.17499C14.5876 5.09999 14.5876 5.06249 14.6251 4.98749C14.6251 5.06249 14.6626 5.09999 14.7001 5.17499L15.6376 7.08749C15.7876 7.42499 16.1251 7.61249 16.5001 7.61249C16.8376 7.64999 17.1751 7.42499 17.3251 7.12499Z" fill="#1B4A41"/>
<path d="M21.6 0H1.8C0.7875 0 0 0.825 0 1.8375V9.7875C0 10.8 0.825 11.625 1.8 11.625H13.6875C14.1375 11.625 14.55 11.25 14.55 10.7625C14.55 10.275 14.175 9.9 13.6875 9.9H1.8C1.725 9.9 1.6875 9.825 1.6875 9.75V1.8375C1.6875 1.7625 1.725 1.6875 1.8 1.6875H21.6375C21.7125 1.6875 21.75 1.7625 21.75 1.8375V9.7875C21.75 9.8625 21.675 9.9375 21.6 9.9375C21.15 9.9375 20.7375 10.3125 20.7375 10.8C20.7375 11.2875 21.1125 11.6625 21.6 11.6625C22.6125 11.6625 23.4375 10.8375 23.4375 9.825V1.8375C23.4375 0.825 22.6125 0 21.6 0Z" fill="#1B4A41"/>
<path d="M22.6875 13.725L17.4 11.0625C16.95 10.8375 16.425 10.9125 16.125 11.25C15.7875 11.5875 15.7125 12.1125 15.9375 12.5625L18.6 17.85C18.825 18.2625 19.2375 18.5625 19.725 18.5625H19.7625C20.175 18.5625 20.55 18.3 20.7 17.925L21.3375 16.4625L22.8 15.825C23.175 15.675 23.4 15.3 23.4375 14.8875C23.4 14.3625 23.1375 13.9125 22.6875 13.725ZM20.025 15.15L19.6125 16.0875L18.225 13.35L20.9625 14.7375L20.025 15.15Z" fill="#1B4A41"/>
</svg>