<svg width="24" height="18" viewBox="0 0 24 18" fill="none" xmlns="http://www.w3.org/2000/svg">
<path d="M22.1625 7.0875C21.75 6.6 21.2625 6.1875 20.7 5.925C21.225 5.4 21.525 4.6875 21.525 3.9C21.525 2.325 20.25 1.05 18.675 1.05C17.1 1.05 15.825 2.325 15.825 3.9C15.825 4.6875 16.1625 5.4 16.65 5.925C16.2 6.15 15.825 6.45 15.45 6.825C15 6.375 14.475 6 13.875 5.7375C14.5875 5.1375 15.0375 4.2375 15.0375 3.2625C15.0375 1.4625 13.575 0 11.775 0C9.975 0 8.5125 1.4625 8.5125 3.2625C8.5125 4.275 8.9625 5.1375 9.675 5.7375C9.1125 6 8.5875 6.3375 8.1 6.825C7.725 6.45 7.35 6.15 6.9 5.925C7.425 5.4 7.725 4.6875 7.725 3.9C7.725 2.325 6.45 1.05 4.875 1.05C3.3 1.05 2.025 2.325 2.025 3.9C2.025 4.6875 2.3625 5.4 2.85 5.925C2.325 6.1875 1.8 6.6 1.3875 7.0875C0.525 8.1 0.0375 9.525 0 11.0625C0 11.4 0.1875 11.7 0.45 11.8125C0.975 12.075 2.8125 12.9375 4.8375 12.9375C5.4 12.9375 6 12.8625 6.5625 12.75C6.7875 12.8625 7.0875 13.0125 7.5 13.1625C7.725 15.375 9.5625 17.1375 11.8125 17.1375C14.025 17.1375 15.8625 15.375 16.0125 13.2C16.4625 13.0125 16.8 12.8625 16.9875 12.75C17.5875 12.8625 18.15 12.9375 18.7125 12.9375C20.8875 12.9375 22.65 12.075 23.1 11.8125C23.3625 11.6625 23.55 11.3625 23.55 11.0625C23.5125 9.525 23.025 8.1 22.1625 7.0875ZM18.675 2.7375C19.3125 2.7375 19.8375 3.2625 19.8375 3.9C19.8375 4.5375 19.3125 5.0625 18.675 5.0625C18.0375 5.0625 17.5125 4.5375 17.5125 3.9C17.55 3.2625 18.0375 2.7375 18.675 2.7375ZM11.8125 1.65C12.675 1.65 13.3875 2.3625 13.3875 3.225C13.3875 4.0875 12.675 4.8 11.8125 4.8C10.95 4.8 10.2375 4.0875 10.2375 3.225C10.2375 2.3625 10.95 1.65 11.8125 1.65ZM4.95 2.7375C5.5875 2.7375 6.1125 3.2625 6.1125 3.9C6.1125 4.5375 5.5875 5.0625 4.95 5.0625C4.3125 5.0625 3.7875 4.5375 3.7875 3.9C3.7875 3.2625 4.3125 2.7375 4.95 2.7375ZM1.8 10.5375C1.9125 9.6 2.25 8.775 2.7375 8.175C3.3 7.5 4.0875 7.125 4.9125 7.125C5.7375 7.125 6.4875 7.5 7.0875 8.175C6.6 9.0375 6.2625 10.05 6.15 11.1375C5.7375 11.2125 5.325 11.25 4.9125 11.25C3.7125 11.25 2.475 10.8375 1.8 10.5375ZM11.8125 15.45C10.425 15.45 9.3 14.325 9.3 12.9375C9.3 11.55 10.425 10.425 11.8125 10.425C13.2 10.425 14.325 11.55 14.325 12.9375C14.325 14.325 13.2 15.45 11.8125 15.45ZM11.8125 8.7375C10.0125 8.7375 8.5125 9.8625 7.9125 11.4375C7.875 11.4375 7.875 11.4 7.8375 11.4C7.95 10.3125 8.25 9.375 8.8125 8.5875C8.8875 8.475 8.9625 8.4 9.0375 8.2875C9.7875 7.425 10.7625 6.9375 11.8125 6.9375C12.8625 6.9375 13.875 7.425 14.5875 8.2875C14.6625 8.4 14.7375 8.475 14.8125 8.5875C14.8875 8.7 14.9625 8.8125 15 8.925C15.0375 8.9625 15.0375 9 15.075 9.0375C15.1125 9.1125 15.15 9.1875 15.1875 9.2625C15.225 9.3 15.225 9.3375 15.2625 9.4125C15.3 9.4875 15.3375 9.5625 15.375 9.6375C15.4125 9.675 15.4125 9.75 15.45 9.7875C15.4875 9.8625 15.4875 9.9375 15.525 10.0125C15.525 10.05 15.5625 10.125 15.5625 10.1625C15.6 10.2375 15.6 10.3125 15.6375 10.3875C15.6375 10.425 15.675 10.5 15.675 10.5375C15.675 10.6125 15.7125 10.725 15.7125 10.8C15.7125 10.8375 15.75 10.9125 15.75 10.95C15.75 11.0625 15.7875 11.1375 15.7875 11.25C15.7875 11.2875 15.7875 11.325 15.7875 11.3625V11.4C15.75 11.4 15.75 11.4375 15.7125 11.4375C15.15 9.9 13.6125 8.7375 11.8125 8.7375ZM18.675 11.25C18.3 11.25 17.8875 11.2125 17.4375 11.1375C17.4375 11.1 17.4375 11.1 17.4375 11.0625C17.4 10.8375 17.3625 10.65 17.325 10.425C17.325 10.35 17.2875 10.3125 17.2875 10.2375C17.25 10.0125 17.175 9.7875 17.1 9.5625C17.025 9.3375 16.95 9.1125 16.8375 8.925C16.8 8.8875 16.8 8.8125 16.7625 8.775C16.6875 8.5875 16.575 8.4 16.5 8.25C16.5 8.2125 16.4625 8.2125 16.4625 8.175C17.025 7.5 17.8125 7.125 18.6375 7.125C19.4625 7.125 20.25 7.5 20.8125 8.175C21.3375 8.8125 21.675 9.6375 21.75 10.575C21.1875 10.8375 20.025 11.25 18.675 11.25Z" fill="#1B4A41"/>
<path d="M12.2626 11.5875L11.3251 12.4875L11.1751 12.3375C10.8376 12 10.3126 12 9.97506 12.3C9.63756 12.6375 9.63756 13.1625 9.93756 13.5L10.6501 14.25C10.8001 14.4 11.0251 14.5125 11.2501 14.5125C11.4751 14.5125 11.7001 14.4375 11.8501 14.25L13.3876 12.7125C13.7251 12.375 13.7251 11.85 13.3876 11.5125C13.1251 11.25 12.5626 11.25 12.2626 11.5875Z" fill="#1B4A41"/>
</svg>
