<svg width="24" height="24" viewBox="0 0 24 24" fill="none" xmlns="http://www.w3.org/2000/svg">
<g clip-path="url(#clip0_940_5271)">
<path d="M23.5227 4.26541C23.4348 4.04355 23.2411 3.88085 23.0074 3.83257C22.7734 3.7842 22.5313 3.85676 22.3626 4.02551L18.7066 7.68148L16.7411 7.25885L16.3185 5.29329L19.9745 1.63727C20.1432 1.46852 20.2157 1.22618 20.1674 0.992507C20.1191 0.758789 19.9564 0.565148 19.7346 0.477117C17.2245 -0.518227 14.3692 0.0719292 12.4602 1.98077C11.5412 2.89971 10.9102 4.05387 10.6353 5.31855C10.4002 6.40052 10.4332 7.51844 10.7287 8.57843L0.971906 18.3352C0.345141 18.9619 0 19.7952 0 20.6816C0 21.568 0.345141 22.4013 0.971953 23.028C1.59867 23.6548 2.43197 23.9999 3.31833 23.9999C4.20464 23.9999 5.03798 23.6548 5.6647 23.028L15.4215 13.2713C16.4815 13.5667 17.5994 13.5997 18.6813 13.3646C19.946 13.0897 21.1002 12.4586 22.0192 11.5397C23.928 9.63082 24.5181 6.77552 23.5227 4.26541ZM21.0166 10.5372C19.5707 11.9831 17.3895 12.478 15.4596 11.7977C15.2022 11.7071 14.9157 11.7721 14.7227 11.9651L4.66219 22.0256C4.30322 22.3846 3.82589 22.5823 3.31823 22.5823C2.81053 22.5823 2.3333 22.3846 1.97428 22.0256C1.61531 21.6665 1.41759 21.1893 1.41759 20.6816C1.41759 20.1739 1.61531 19.6967 1.97433 19.3376L12.0348 9.27715C12.2278 9.08421 12.2928 8.79766 12.2022 8.54032C11.522 6.61043 12.0167 4.42915 13.4626 2.98329C14.4845 1.96141 15.8494 1.41776 17.2405 1.41776C17.5324 1.41776 17.8255 1.44166 18.1166 1.49018L15.043 4.56377C14.8729 4.73388 14.8006 4.97871 14.8512 5.21398L15.4512 8.00459C15.5098 8.27712 15.7227 8.48998 15.9952 8.54857L18.7858 9.14857C19.0212 9.19915 19.2659 9.12691 19.4361 8.95676L22.5096 5.88316C22.7892 7.56237 22.2528 9.30101 21.0166 10.5372Z" fill="#1B4A41"/>
</g>
<defs>
<clipPath id="clip0_940_5271">
<rect width="24" height="24" fill="white"/>
</clipPath>
</defs>
</svg>